<svg xmlns="http://www.w3.org/2000/svg" viewBox="0 0 760 360" role="img" aria-label="고속 조건 위치 오차" font-family="Noto Sans KR, Noto Sans CJK KR, sans-serif"><title>고속 조건 위치 오차</title><rect width="760" height="360" fill="#fcfcfb"/><line x1="90" x2="740" y1="259.9" y2="259.9" stroke="#e4e3df"/><text x="82.0" y="263.9" font-size="12" fill="#52514e" text-anchor="end" font-weight="400">1 cm</text><line x1="90" x2="740" y1="212.2" y2="212.2" stroke="#e4e3df"/><text x="82.0" y="216.2" font-size="12" fill="#52514e" text-anchor="end" font-weight="400">3 cm</text><line x1="90" x2="740" y1="160.0" y2="160.0" stroke="#e4e3df"/><text x="82.0" y="164.0" font-size="12" fill="#52514e" text-anchor="end" font-weight="400">10 cm</text><line x1="90" x2="740" y1="112.3" y2="112.3" stroke="#e4e3df"/><text x="82.0" y="116.3" font-size="12" fill="#52514e" text-anchor="end" font-weight="400">30 cm</text><line x1="90" x2="740" y1="60.1" y2="60.1" stroke="#e4e3df"/><text x="82.0" y="64.1" font-size="12" fill="#52514e" text-anchor="end" font-weight="400">1 m</text><circle cx="146.0" cy="168.6" r="5" fill="#eb6834" stroke="#fcfcfb" stroke-width="2"/><circle cx="155.0" cy="167.0" r="5" fill="#eb6834" stroke="#fcfcfb" stroke-width="2"/><circle cx="164.0" cy="165.5" r="5" fill="#eb6834" stroke="#fcfcfb" stroke-width="2"/><line x1="125.0" x2="185.0" y1="167.1" y2="167.1" stroke="#0b0b0b" stroke-width="2"/><text x="189.0" y="171.1" font-size="12" fill="#0b0b0b" text-anchor="start" font-weight="400">8.5</text><text x="155.0" y="312.0" font-size="13" fill="#0b0b0b" text-anchor="middle" font-weight="600">L-ST</text><text x="155.0" y="330.0" font-size="11" fill="#52514e" text-anchor="middle" font-weight="400">기존 LiDAR</text><circle cx="276.0" cy="256.7" r="5" fill="#eda100" stroke="#fcfcfb" stroke-width="2"/><circle cx="285.0" cy="232.5" r="5" fill="#eda100" stroke="#fcfcfb" stroke-width="2"/><circle cx="294.0" cy="215.0" r="5" fill="#eda100" stroke="#fcfcfb" stroke-width="2"/><line x1="255.0" x2="315.0" y1="231.5" y2="231.5" stroke="#0b0b0b" stroke-width="2"/><text x="319.0" y="235.5" font-size="12" fill="#0b0b0b" text-anchor="start" font-weight="400">1.9</text><text x="285.0" y="312.0" font-size="13" fill="#0b0b0b" text-anchor="middle" font-weight="600">L-RT</text><text x="285.0" y="330.0" font-size="11" fill="#52514e" text-anchor="middle" font-weight="400">LiDAR</text><circle cx="406.0" cy="154.5" r="5" fill="#1baf7a" stroke="#fcfcfb" stroke-width="2"/><circle cx="415.0" cy="141.3" r="5" fill="#1baf7a" stroke="#fcfcfb" stroke-width="2"/><circle cx="424.0" cy="109.7" r="5" fill="#1baf7a" stroke="#fcfcfb" stroke-width="2"/><line x1="385.0" x2="445.0" y1="131.0" y2="131.0" stroke="#0b0b0b" stroke-width="2"/><text x="449.0" y="135.0" font-size="12" fill="#0b0b0b" text-anchor="start" font-weight="400">19.5</text><text x="415.0" y="312.0" font-size="13" fill="#0b0b0b" text-anchor="middle" font-weight="600">V4</text><text x="415.0" y="330.0" font-size="11" fill="#52514e" text-anchor="middle" font-weight="400">카메라 4대</text><circle cx="536.0" cy="251.0" r="5" fill="#2a78d6" stroke="#fcfcfb" stroke-width="2"/><circle cx="545.0" cy="228.3" r="5" fill="#2a78d6" stroke="#fcfcfb" stroke-width="2"/><circle cx="554.0" cy="224.0" r="5" fill="#2a78d6" stroke="#fcfcfb" stroke-width="2"/><line x1="515.0" x2="575.0" y1="232.9" y2="232.9" stroke="#0b0b0b" stroke-width="2"/><text x="579.0" y="236.9" font-size="12" fill="#0b0b0b" text-anchor="start" font-weight="400">1.9</text><text x="545.0" y="312.0" font-size="13" fill="#0b0b0b" text-anchor="middle" font-weight="600">F</text><text x="545.0" y="330.0" font-size="11" fill="#52514e" text-anchor="middle" font-weight="400">융합</text><circle cx="666.0" cy="112.2" r="5" fill="#e87ba4" stroke="#fcfcfb" stroke-width="2"/><circle cx="675.0" cy="94.5" r="5" fill="#e87ba4" stroke="#fcfcfb" stroke-width="2"/><circle cx="684.0" cy="85.6" r="5" fill="#e87ba4" stroke="#fcfcfb" stroke-width="2"/><line x1="645.0" x2="705.0" y1="96.1" y2="96.1" stroke="#0b0b0b" stroke-width="2"/><text x="709.0" y="100.1" font-size="12" fill="#0b0b0b" text-anchor="start" font-weight="400">43.6</text><text x="675.0" y="312.0" font-size="13" fill="#0b0b0b" text-anchor="middle" font-weight="600">V1</text><text x="675.0" y="330.0" font-size="11" fill="#52514e" text-anchor="middle" font-weight="400">전방 1대</text><text x="90.0" y="352.0" font-size="11" fill="#52514e" text-anchor="start" font-weight="400">점 = 평가 seed 하나, 가로선 = 평균(cm). 로그 축.</text></svg>
